<svg id="Layer_1" data-name="Layer 1" xmlns="http://www.w3.org/2000/svg" xmlns:xlink="http://www.w3.org/1999/xlink" viewBox="0 0 337.72 120.74"><defs><style>.cls-1{fill:#d57f2b;}.cls-2{fill:url(#linear-gradient);}.cls-3{fill:url(#linear-gradient-2);}.cls-4{fill:#f49022;}</style><linearGradient id="linear-gradient" x1="167.46" y1="81.49" x2="200.26" y2="24.68" gradientUnits="userSpaceOnUse"><stop offset="0" stop-color="#c6382e"/><stop offset="0.19" stop-color="#c73b2e"/><stop offset="0.35" stop-color="#ca462e"/><stop offset="0.51" stop-color="#ce582e"/><stop offset="0.66" stop-color="#d5712e"/><stop offset="0.81" stop-color="#dd922d"/><stop offset="0.95" stop-color="#e8b92d"/><stop offset="1" stop-color="#ecc92d"/></linearGradient><linearGradient id="linear-gradient-2" x1="186.65" y1="74.63" x2="156.74" y2="22.83" gradientUnits="userSpaceOnUse"><stop offset="0" stop-color="#c6382e"/><stop offset="0.2" stop-color="#c73b2e"/><stop offset="0.33" stop-color="#c9432e"/><stop offset="0.44" stop-color="#cd522e"/><stop offset="0.54" stop-color="#d2672e"/><stop offset="0.63" stop-color="#d9822d"/><stop offset="0.72" stop-color="#e2a32d"/><stop offset="0.79" stop-color="#ecc92d"/></linearGradient></defs><path class="cls-1" d="M42.43,124.67V107.24c0-4.82-1.43-8.4-4.24-10.62-2.65-2.1-6.37-3.16-11.08-3.16a19.28,19.28,0,0,0-8.22,1.62A18.93,18.93,0,0,0,14,98.15L12.45,99.6l4.45,5.74,1.85-1.55a17,17,0,0,1,3.14-1.9,12.39,12.39,0,0,1,5.29-.91,16.36,16.36,0,0,1,3.66.36,4.93,4.93,0,0,1,2.11,1,4,4,0,0,1,1.19,1.79,9.62,9.62,0,0,1,.47,2.76l-1.36-.14c-1.6-.14-3.43-.22-5.44-.22a23.36,23.36,0,0,0-7.16,1,14.34,14.34,0,0,0-5.15,2.85,11.34,11.34,0,0,0-3.08,4.49,14.89,14.89,0,0,0-.91,5.18,12.11,12.11,0,0,0,1.3,5.83,10.4,10.4,0,0,0,3.36,3.74,12.29,12.29,0,0,0,4.46,1.85,22.38,22.38,0,0,0,4.52.47,19.46,19.46,0,0,0,3.33-.31,16,16,0,0,0,6.5-2.74v0l.16,2.16h7.67l-.32-4.46Q42.43,125.81,42.43,124.67ZM27.74,113.83a51.49,51.49,0,0,1,5.36.23l1.6.21v2.61a5.5,5.5,0,0,1-.66,2.54,8.56,8.56,0,0,1-1.95,2.5,10.33,10.33,0,0,1-3,1.81,9.61,9.61,0,0,1-3.61.67,8.28,8.28,0,0,1-4.67-1.17c-.56-.38-1.31-1.12-1.31-3.2a11.58,11.58,0,0,1,.26-2.22,4,4,0,0,1,.91-1.77A5.79,5.79,0,0,1,23,114.53,12.94,12.94,0,0,1,27.74,113.83Z" transform="translate(-11.51 -11.19)"/><path class="cls-1" d="M90.67,98.15a11.66,11.66,0,0,0-4.73-3.53,17.29,17.29,0,0,0-6.66-1.16,16.44,16.44,0,0,0-5.62.91,16.17,16.17,0,0,0-4.21,2.26c-.18.13-.34.27-.51.41,0-.2,0-.41,0-.62L68.7,94.3H61.09l.23,2.54c0,.48.07.93.09,1.34s0,.83,0,1.28v31.62h7.8V112.2a13.48,13.48,0,0,1,.63-4,11.65,11.65,0,0,1,1.83-3.62,9.37,9.37,0,0,1,3-2.58,8.34,8.34,0,0,1,4.16-1,11.46,11.46,0,0,1,3.39.45,4.2,4.2,0,0,1,2,1.27,7,7,0,0,1,1.35,2.83A21.39,21.39,0,0,1,86.1,111v20.13h7.8V109.9a27.48,27.48,0,0,0-.69-6.38A13.71,13.71,0,0,0,90.67,98.15Z" transform="translate(-11.51 -11.19)"/><path class="cls-1" d="M147.12,125.44V79.84h-7.73V95.06c-.94-.36-2-.7-3.07-1a16.16,16.16,0,0,0-4.38-.58,20.22,20.22,0,0,0-7.54,1.39,17.6,17.6,0,0,0-6,4,17.89,17.89,0,0,0-3.93,6.21,21.84,21.84,0,0,0-1.38,7.92,26.27,26.27,0,0,0,1,7.17,17.57,17.57,0,0,0,3.07,6.09,15,15,0,0,0,5.33,4.18,17.35,17.35,0,0,0,7.43,1.51,15.36,15.36,0,0,0,6.34-1.22,21.69,21.69,0,0,0,3.34-1.86s0,0,0,.08l.15,2.16h7.75l-.18-2.49C147.17,127.36,147.12,126.3,147.12,125.44Zm-10-4.1a9.73,9.73,0,0,1-2.9,2.16,9.08,9.08,0,0,1-4.05.83,9.29,9.29,0,0,1-4.25-.86,7.54,7.54,0,0,1-2.7-2.29,10.51,10.51,0,0,1-1.63-3.55,18.86,18.86,0,0,1-.55-4.59,15,15,0,0,1,.94-5.61,10.52,10.52,0,0,1,2.41-3.66,9.17,9.17,0,0,1,3.35-2,12.59,12.59,0,0,1,4.1-.68,13.33,13.33,0,0,1,3.67.46,12.11,12.11,0,0,1,2.6,1.06,11.65,11.65,0,0,1,1.25.82v12.93a6.56,6.56,0,0,1-.54,2.33A8.85,8.85,0,0,1,137.15,121.34Z" transform="translate(-11.51 -11.19)"/><rect class="cls-1" x="165.55" y="82.66" width="3.69" height="37.68"/><path class="cls-1" d="M222.82,94.71a16.46,16.46,0,0,0-3.94,2.17,13.49,13.49,0,0,0-2.77,2.78,22.7,22.7,0,0,0-1.73,2.69V99.7c0-.75,0-1.44,0-2s-.06-1.2-.08-1.73-.07-1.1-.12-1.69h-3.38q.08.88.12,1.65c0,.51,0,1,0,1.61v33.72h3.62V112.32a16.78,16.78,0,0,1,.92-5.43,15.6,15.6,0,0,1,2.62-4.78,13.42,13.42,0,0,1,4-3.38,10.63,10.63,0,0,1,5.23-1.28,12,12,0,0,1,1.41.08,4.48,4.48,0,0,1,1.32.32l1-3.46a7.7,7.7,0,0,0-3.06-.56A14.2,14.2,0,0,0,222.82,94.71Z" transform="translate(-11.51 -11.19)"/><path class="cls-1" d="M284.43,99.44a18.71,18.71,0,0,0-5.85-4,18,18,0,0,0-14.26,0,18.63,18.63,0,0,0-5.86,4,18.9,18.9,0,0,0-3.95,6,19.27,19.27,0,0,0,0,14.57,19,19,0,0,0,3.95,6,18.63,18.63,0,0,0,5.86,4,17.91,17.91,0,0,0,14.26,0,18.92,18.92,0,0,0,5.85-30.53Zm.62,19.34a15.58,15.58,0,0,1-3.1,4.92,15,15,0,0,1-4.69,3.33,13.78,13.78,0,0,1-5.81,1.24,13.59,13.59,0,0,1-5.74-1.24,14.34,14.34,0,0,1-4.69-3.41,17.13,17.13,0,0,1-3.14-5,15.46,15.46,0,0,1-1.16-6,16.47,16.47,0,0,1,1.12-6.08,15.21,15.21,0,0,1,3.11-4.92,14.92,14.92,0,0,1,4.64-3.34,13.9,13.9,0,0,1,5.86-1.24,13.74,13.74,0,0,1,5.73,1.24,14.49,14.49,0,0,1,4.69,3.41,17.07,17.07,0,0,1,3.14,5,15.59,15.59,0,0,1,1.16,5.93A16.56,16.56,0,0,1,285.05,118.78Z" transform="translate(-11.51 -11.19)"/><path class="cls-1" d="M348.49,102.7a13.13,13.13,0,0,0-2.44-5.22,10.9,10.9,0,0,0-4.44-3.3A17.47,17.47,0,0,0,334.89,93a16.26,16.26,0,0,0-5.63.9,15.54,15.54,0,0,0-4.19,2.24,15.83,15.83,0,0,0-2.94,2.89,21.39,21.39,0,0,0-1.83,2.77V99.2c0-.74,0-1.39,0-2s-.06-1.1-.08-1.59-.07-1-.12-1.63h-3.43c.06.6.1,1.15.13,1.67s0,1.06,0,1.63V131.5h3.66V112.19a18.49,18.49,0,0,1,.86-5.46,16.29,16.29,0,0,1,2.57-5,13.84,13.84,0,0,1,4.31-3.75,12.44,12.44,0,0,1,6.2-1.47,15.69,15.69,0,0,1,4.76.66,7.51,7.51,0,0,1,3.51,2.28,10.79,10.79,0,0,1,2.16,4.4,27.52,27.52,0,0,1,.73,6.92V131.5h3.67v-22A29.09,29.09,0,0,0,348.49,102.7Z" transform="translate(-11.51 -11.19)"/><path class="cls-2" d="M206.25,59a32.52,32.52,0,0,1-23.62,31.28,6.74,6.74,0,0,0,.91-.59,9,9,0,0,0,3.68-7.89,9,9,0,0,0-18,.61v.07l-.47-.32h0a24.71,24.71,0,0,1-3.09-2.46l-.38-.36a27.25,27.25,0,0,1-7.39-13c0-.16-.07-.31-.11-.47h0c-.1-.46-.19-.91-.27-1.37,0-.23-.08-.46-.11-.69a34.11,34.11,0,0,1,1.61-15,48.44,48.44,0,0,1,5.85-9.55c2.13-2.8,4.47-5.45,6.84-8,1.38-1.53,2.77-3,4.06-4.62a32.44,32.44,0,0,0,3.39-5,15.89,15.89,0,0,0,1.9-5,14.4,14.4,0,0,0,.16-2.28,30.57,30.57,0,0,0-4-2.95l.15.09.31.2c6.09,3.85,8.82,8.09,9.05,12.77a25.21,25.21,0,0,1-.4,4.56c-.65,3.74-2,6.5-2.6,9.26a7.84,7.84,0,0,0,.53,5.36,7.44,7.44,0,0,0,7.88,4,7.57,7.57,0,0,0,6.2-6.84,7.3,7.3,0,0,0-.48-3.66l.2.22A32.4,32.4,0,0,1,206.25,59Z" transform="translate(-11.51 -11.19)"/><circle class="cls-1" cx="180.64" cy="9.24" r="3.36"/><path class="cls-1" d="M208.32,20.64A3.36,3.36,0,1,0,204.91,24a3.35,3.35,0,0,0,3.41-3.31" transform="translate(-11.51 -11.19)"/><path class="cls-1" d="M208.16,33.44a3.37,3.37,0,1,0-3.41,3.32,3.37,3.37,0,0,0,3.41-3.32" transform="translate(-11.51 -11.19)"/><circle class="cls-1" cx="180.48" cy="22.04" r="3.36"/><path class="cls-3" d="M181.16,14.28a14.4,14.4,0,0,1-.16,2.28,15.89,15.89,0,0,1-1.9,5,32.44,32.44,0,0,1-3.39,5c-1.29,1.59-2.68,3.09-4.06,4.62-2.37,2.6-4.71,5.25-6.84,8A48.44,48.44,0,0,0,159,48.74a34.11,34.11,0,0,0-1.61,15c0,.23.07.46.11.69.08.46.17.91.27,1.37h0c0,.16.08.31.11.47a27.25,27.25,0,0,0,7.39,13l.38.36a24.91,24.91,0,0,0,3.57,2.78c0,.37,0,.7.07,1,0,.1,0,.2,0,.31a.06.06,0,0,0,0,0,2,2,0,0,0,0,.26,3.13,3.13,0,0,0,.13.48l0,0a19.05,19.05,0,0,1-1.86-.76l-.54-.27,0,0c-.35-.18-.69-.36-1-.55h0l-.53-.32-.53-.33L164.5,82l-.4-.28-.81-.59h0l-.39-.31a24,24,0,0,1-2.52-2.3,3.7,3.7,0,0,1-.33-.36c-.11-.11-.22-.24-.33-.36s-.42-.48-.63-.73c0,0,0,0,0,0l-.37-.47c-.23-.3-.46-.6-.67-.9l-.48-.7c-.16-.23-.3-.47-.45-.71s-.39-.64-.57-1l-.2-.37-.19-.35v0l-.19-.38c-.07-.12-.13-.25-.19-.37-.4-.85-.76-1.7-1.08-2.59-.16-.43-.3-.88-.44-1.33l-.15-.5a29.56,29.56,0,0,1-.77-3.6A33.19,33.19,0,0,1,154.91,49c.48-1.07,1-2.31,1.58-3.33l.35-.61.18-.3c0-.1.11-.2.17-.3l0,0c.24-.4.49-.79.74-1.18l0-.05c.15-.23.3-.47.46-.7l.42-.63.66-.94.4-.54c.27-.38.55-.75.84-1.13s.53-.7.81-1c.54-.69,1.1-1.37,1.66-2l.6-.71.26-.29h0c.56-.67,1.15-1.33,1.73-2s1.17-1.32,1.77-2l1-1.13c.34-.37.68-.75,1-1.13.67-.75,1.34-1.52,2-2.3.42-.52.83-1,1.22-1.57l.31-.44.36-.5.27-.41c.1-.14.18-.27.27-.41l.26-.42c.13-.2.25-.41.37-.62a3.72,3.72,0,0,0,.19-.34,3.72,3.72,0,0,0,.19-.34,16.2,16.2,0,0,0,1.91-5,20.42,20.42,0,0,0-.06-5.41h0l.38.23-.15-.09A30.57,30.57,0,0,1,181.16,14.28Z" transform="translate(-11.51 -11.19)"/><path class="cls-4" d="M175.76,58a.08.08,0,0,0-.12,0" transform="translate(-11.51 -11.19)"/></svg>