<?xml version="1.0" encoding="UTF-8" standalone="no"?>
<!-- Created with Inkscape (http://www.inkscape.org/) -->

<svg
   version="1.1"
   id="svg864"
   xml:space="preserve"
   width="118.59056"
   height="118.59056"
   viewBox="0 0 118.59056 118.59056"
   sodipodi:docname="newfavicon.svg"
   inkscape:version="1.1 (c4e8f9e, 2021-05-24)"
   xmlns:inkscape="http://www.inkscape.org/namespaces/inkscape"
   xmlns:sodipodi="http://sodipodi.sourceforge.net/DTD/sodipodi-0.dtd"
   xmlns="http://www.w3.org/2000/svg"
   xmlns:svg="http://www.w3.org/2000/svg"><defs
     id="defs868" /><sodipodi:namedview
     id="namedview866"
     pagecolor="#ffffff"
     bordercolor="#666666"
     borderopacity="1.0"
     inkscape:pageshadow="2"
     inkscape:pageopacity="0.0"
     inkscape:pagecheckerboard="0"
     showgrid="false"
     inkscape:zoom="1.9557292"
     inkscape:cx="177.68309"
     inkscape:cy="40.138482"
     inkscape:window-width="1390"
     inkscape:window-height="973"
     inkscape:window-x="218"
     inkscape:window-y="25"
     inkscape:window-maximized="0"
     inkscape:current-layer="g872"
     fit-margin-top="0"
     fit-margin-left="0"
     fit-margin-right="0"
     fit-margin-bottom="0" /><g
     id="g870"
     inkscape:groupmode="layer"
     inkscape:label="PROCESS - LOGO-RGB"
     transform="matrix(1.3333333,0,0,-1.3333333,-367.68017,355.74767)"><g
       id="g872"
       transform="scale(1,-1)"><rect
         style="fill:none;fill-rule:evenodd;stroke-width:0.75"
         id="rect2741"
         width="88.942924"
         height="88.942924"
         x="275.76013"
         y="-266.81076" /><path
         d="m 303.51351,-216.80247 c -2.69321,1.37649 -5.99214,0.3114 -7.36885,-2.38044 -1.37785,-2.69344 -0.31083,-5.99135 2.38123,-7.36942 2.69321,-1.3765 5.99134,-0.31084 7.36841,2.38316 1.37637,2.6897 0.31049,5.98919 -2.38079,7.3667 z"
         style="fill:#1562c2;fill-opacity:1;fill-rule:nonzero;stroke:none"
         id="path1016" /><path
         d="m 290.2942,-234.29328 c -3.02131,1.54598 -6.72495,0.34917 -8.2696,-2.67193 -1.54657,-3.0221 -0.34974,-6.72575 2.67135,-8.27039 3.02211,-1.54657 6.72497,-0.34917 8.27153,2.67293 1.54543,3.02053 0.34804,6.72338 -2.67328,8.26939 z"
         style="fill:#88a9de;fill-opacity:1;fill-rule:nonzero;stroke:none"
         id="path1018" /><path
         d="m 330.51587,-197.61616 c -1.44008,0.73648 -3.20588,0.16628 -3.94292,-1.27458 -0.73589,-1.43927 -0.16571,-3.20507 1.27516,-3.94211 1.44007,-0.73648 3.20586,-0.16629 3.9429,1.27458 0.73591,1.43928 0.16571,3.20507 -1.27514,3.94211 z"
         style="fill:#003bb4;fill-opacity:1;fill-rule:nonzero;stroke:none"
         id="path1034" /><path
         d="m 316.96577,-208.59898 c -1.71077,0.87537 -3.80828,0.19782 -4.68228,-1.51274 -0.87673,-1.711 -0.1986,-3.80771 1.51275,-4.68229 1.71021,-0.87616 3.80771,-0.1986 4.68286,1.51353 0.87479,1.71 0.19667,3.80672 -1.51333,4.6815 z"
         style="fill:#c9d7ef;fill-opacity:1;fill-rule:nonzero;stroke:none"
         id="path1052" /><path
         style="fill:none;stroke:#000000;stroke-width:1.77653;stroke-linecap:butt;stroke-linejoin:miter;stroke-miterlimit:4;stroke-dasharray:none;stroke-opacity:1"
         d="m 274.95033,-235.3744 c 31.88329,40.31139 75.98895,47.28413 75.98895,47.28413"
         id="path4461-8" /><path
         style="fill:none;stroke:#000000;stroke-width:2.01644;stroke-linecap:butt;stroke-linejoin:miter;stroke-miterlimit:4;stroke-dasharray:none;stroke-opacity:1"
         d="m 292.99641,-268.34591 c 23.1355,63.43377 59.40194,76.2409 59.40194,76.2409"
         id="path4461-8-3" /><path
         d="m 357.67189,-183.22211 c -2.7883,2.01375 -6.67958,1.3861 -8.69332,-1.4022 -2.01375,-2.7883 -1.38611,-6.67958 1.4022,-8.69333 2.7883,-2.01375 6.67958,-1.3861 8.69333,1.4022 2.01374,2.7883 1.3861,6.67958 -1.40221,8.69333 z"
         style="fill:#0030b0;fill-opacity:1;fill-rule:nonzero;stroke:none"
         id="path880" /><path
         style="fill:#b3b3b3;stroke-width:0.899914;stroke-miterlimit:4;stroke-dasharray:none"
         d="m 458.9961,513.72184 c -20.12228,-5.50972 -41.17676,-15.84266 -58.34981,-28.6364 -10.74033,-8.00143 -21.32481,-17.87423 -29.06193,-27.10786 l -3.70052,-4.41628 v -20.603 -20.603 h 10.95037 10.95038 l 1.93148,4.9714 c 16.55112,42.60068 42.45571,76.68728 70.17248,92.33656 l 3.43479,1.93932 -0.79762,1.58099 c -0.43868,0.86954 -0.84543,1.62481 -0.90389,1.67837 -0.0584,0.0536 -2.14003,-0.45948 -4.62573,-1.1401 z m -17.2786,-9.78083 c 1.81852,-1.64573 1.51533,-5.01627 -0.56534,-6.28499 -3.08258,-1.87964 -6.88177,0.6753 -6.22331,4.18516 0.55093,2.93673 4.51053,4.1615 6.78865,2.09983 z m -18.66734,-14.17127 c 1.17158,-0.71443 2.32118,-2.69267 2.32118,-3.99432 0,-4.56472 -6.37024,-6.47719 -8.87317,-2.6639 -0.87069,1.32653 -0.87163,3.95157 -0.002,5.27665 1.34411,2.04778 4.4037,2.69275 6.55388,1.38157 z m -17.91721,-10.93641 c 2.26158,-1.27108 3.38591,-3.20396 3.52147,-6.05388 0.13354,-2.80761 -0.64519,-4.49601 -2.91791,-6.3264 -1.16868,-0.94123 -1.7459,-1.12927 -3.8277,-1.2469 -3.63588,-0.20544 -6.1397,1.26277 -7.43331,4.3588 -1.58484,3.79307 0.47026,8.44415 4.37105,9.8925 1.80697,0.67092 4.44887,0.40863 6.2864,-0.62412 z m -18.03507,-23.12961 c 0.72434,-0.36289 1.897,-1.33741 2.60589,-2.1656 5.20649,-6.0826 -0.91725,-15.4179 -8.64089,-13.17257 -3.74694,1.08926 -5.94791,4.0577 -5.94791,8.02192 0,6.18526 6.41838,10.10405 11.98291,7.31625 z"
         id="path5987"
         transform="matrix(0.75000002,0,0,0.75000002,0,-576.00001)" /><path
         style="fill:#ffffff;stroke-width:0.899914;stroke-miterlimit:4;stroke-dasharray:none"
         d="M 458.9961,513.72184 C 442.46015,509.1941 424.44769,501.02683 409.464,491.26285 395.798,482.35753 381.97966,470.2428 371.76936,458.21544 l -3.88552,-4.57701 V 432.99687 412.3553 h 10.96533 10.96534 l 1.19721,3.16362 c 7.6996,20.34613 19.28429,41.82786 30.75818,57.03555 12.60229,16.70329 28.1847,30.91198 41.60821,37.94009 l 1.97389,1.03346 -0.82679,1.63312 c -0.45474,0.89821 -0.86793,1.67025 -0.91822,1.71565 -0.0503,0.0454 -2.12519,-0.47433 -4.61089,-1.15495 z m -17.75853,-9.39764 c 2.32506,-1.62854 2.10725,-5.5675 -0.37895,-6.85317 -4.21783,-2.18112 -8.21256,3.47776 -4.60055,6.51707 1.30497,1.09806 3.66429,1.25731 4.9795,0.3361 z m -18.35076,-14.43899 c 1.09349,-0.56546 2.46063,-2.91714 2.47659,-4.26006 0.0144,-1.21164 -1.13383,-3.10418 -2.33296,-3.84529 -2.60716,-1.61131 -5.79657,-0.53966 -6.88632,2.31381 -0.59759,1.56475 -0.59871,1.74754 -0.02,3.26277 1.05248,2.75589 4.11153,3.89976 6.76272,2.52877 z m -19.47016,-10.30212 c 5.06694,-1.4071 7.00553,-8.35391 3.40765,-12.21105 -2.78265,-2.98317 -8.2103,-2.98317 -10.99296,0 -3.49986,3.75205 -1.85639,10.32805 3.01521,12.06473 1.70372,0.60736 2.78522,0.64198 4.5701,0.14632 z m -16.99142,-23.60543 c 5.5664,-2.33262 6.91196,-9.5467 2.55239,-13.68437 -3.3177,-3.14884 -9.12509,-2.82647 -12.00417,0.66635 -3.29105,3.99261 -1.98867,10.4876 2.55385,12.7361 1.81702,0.8994 5.10384,1.03374 6.89793,0.28192 z"
         id="path6026"
         transform="matrix(0.75000002,0,0,0.75000002,0,-576.00001)" /></g></g></svg>
